<svg xmlns="http://www.w3.org/2000/svg" version="1.1" xmlns:xlink="http://www.w3.org/1999/xlink" xmlns:svgjs="http://svgjs.dev/svgjs" width="1500" height="1500" viewBox="0 0 1500 1500"><rect width="1500" height="1500" fill="#ffffff"></rect><g transform="matrix(0.6666666666666666,0,0,0.6666666666666666,249.39393939393938,580.3766154144341)"><svg viewBox="0 0 396 134" data-background-color="#ffffff" preserveAspectRatio="xMidYMid meet" height="507" width="1500" xmlns="http://www.w3.org/2000/svg" xmlns:xlink="http://www.w3.org/1999/xlink"><g id="tight-bounds" transform="matrix(1,0,0,1,0.2400000000000091,0.24714063451426682)"><svg viewBox="0 0 395.52 133.50571873097144" height="133.50571873097144" width="395.52"><g><svg viewBox="0 0 395.52 133.50571873097144" height="133.50571873097144" width="395.52"><g transform="matrix(1,0,0,1,0,82.51189015954287)"><svg viewBox="0 0 395.52 50.99382857142857" height="50.99382857142857" width="395.52"><g id="textblocktransform"><svg viewBox="0 0 395.52 50.99382857142857" height="50.99382857142857" width="395.52" id="textblock"><g><svg viewBox="0 0 395.52 50.99382857142857" height="50.99382857142857" width="395.52"><g transform="matrix(1,0,0,1,0,0)"><svg width="395.52" viewBox="0.85 -35.55 279.96999999999997 36.099999999999994" height="50.99382857142857" data-palette-color="#000000"><path d="M0.85-35L20.75-35 20.75-30.95 13.05-30.95 13.05 0 8.65 0 8.65-30.95 0.85-30.95 0.85-35ZM24.65 0L24.75-35 29.05-35 29.05 0 24.65 0ZM26.3-35L36.55-35Q39.5-35 41.8-33.83 44.1-32.65 45.42-30.3 46.75-27.95 46.75-24.45L46.75-24.45Q46.75-21.05 45.37-18.7 44-16.35 41.75-15.13 39.5-13.9 36.85-13.9L36.85-13.9 26.3-13.9 26.3-35ZM28.75-31L28.75-17.75 36.2-17.75Q37.9-17.75 39.25-18.5 40.6-19.25 41.42-20.73 42.25-22.2 42.25-24.25L42.25-24.25Q42.25-26.5 41.42-28 40.6-29.5 39.25-30.25 37.9-31 36.2-31L36.2-31 28.75-31ZM42.25 0L34.75-16.35 38.9-16.9 46.75-0.8 46.75 0 42.25 0ZM53.7 0L49.2 0 49.2-0.9 57.7-35 67.6-34.95 76.05-0.9 76.05 0 71.55 0 68.85-11.25 56.4-11.25 53.7 0ZM60.9-30.9L57.2-15.15 68.1-15.15 64.35-30.9 60.9-30.9ZM77.54-34.1L77.54-35 82.04-35 89.24-4.2 92.54-4.2 99.74-35 104.29-35 104.29-34.1 95.79-0.05 85.99 0 77.54-34.1ZM108.14-35L125.64-35 125.64-31 112.54-31 112.54-19.1Q114.19-19.8 116.27-20.18 118.34-20.55 120.49-20.65 122.64-20.75 124.39-20.45L124.39-20.45 124.39-16.65 123.99-16.35Q122.64-16.75 120.62-16.75 118.59-16.75 116.44-16.4 114.29-16.05 112.54-15.25L112.54-15.25 112.54-4 125.64-4 125.64 0 108.14 0 108.14-35ZM130.34 0L130.34-35 134.74-35 134.74-4 146.59-4 146.59 0 130.34 0ZM162.68-17.5L162.68-17.5Q162.68-23.75 164.91-27.73 167.13-31.7 170.86-33.63 174.58-35.55 179.08-35.55L179.08-35.55Q181.53-35.55 183.48-35 185.43-34.45 186.81-33.73 188.18-33 188.78-32.35L188.78-32.35 188.78-27.85 187.98-27.85Q187.23-28.8 185.96-29.63 184.68-30.45 182.96-30.95 181.23-31.45 178.98-31.45L178.98-31.45Q175.38-31.45 172.73-29.83 170.08-28.2 168.66-25.1 167.23-22 167.23-17.55L167.23-17.55Q167.23-13.15 168.61-10.03 169.98-6.9 172.51-5.23 175.03-3.55 178.33-3.55L178.33-3.55Q180.68-3.55 182.33-4.23 183.98-4.9 184.63-5.65L184.63-5.65 184.63-16.1 172.43-16.1 172.43-20 188.78-20 188.78-3.55Q186.63-1.4 183.86-0.43 181.08 0.55 177.83 0.55L177.83 0.55Q174.78 0.55 172.06-0.53 169.33-1.6 167.21-3.8 165.08-6 163.88-9.43 162.68-12.85 162.68-17.5ZM194.33 0L194.33-35 198.73-35 198.73 0 194.33 0ZM223.73-6.7L223.53-35 227.88-35 227.88 0 221.83 0 209.78-28.15 209.13-28.15 209.23 0 204.93 0 204.93-35 210.98-35 223.08-6.7 223.73-6.7ZM252.93-6.7L252.73-35 257.08-35 257.08 0 251.03 0 238.98-28.15 238.33-28.15 238.43 0 234.13 0 234.13-35 240.18-35 252.28-6.7 252.93-6.7ZM263.32-35L280.82-35 280.82-31 267.72-31 267.72-19.1Q269.37-19.8 271.45-20.18 273.52-20.55 275.67-20.65 277.82-20.75 279.57-20.45L279.57-20.45 279.57-16.65 279.17-16.35Q277.82-16.75 275.8-16.75 273.77-16.75 271.62-16.4 269.47-16.05 267.72-15.25L267.72-15.25 267.72-4 280.82-4 280.82 0 263.32 0 263.32-35Z" opacity="1" transform="matrix(1,0,0,1,0,0)" fill="#000000" class="wordmark-text-0" data-fill-palette-color="primary" id="text-0"></path></svg></g></svg></g></svg></g></svg></g><g transform="matrix(1,0,0,1,162.52326445714286,0)"><svg viewBox="0 0 70.47347108571428 70.4734710857143" height="70.4734710857143" width="70.47347108571428"><g><svg></svg></g><g id="icon-0"><svg viewBox="0 0 70.47347108571428 70.4734710857143" height="70.4734710857143" width="70.47347108571428"><g><path transform="scale(0.70473,0.70473)" d="M30 100c-16.569 0-30-13.431-30-30v-40c0-16.569 13.431-30 30-30h40c16.569 0 30 13.431 30 30v40c0 16.569-13.431 30-30 30z" fill="#0077b6" fill-rule="nonzero" stroke="none" stroke-width="1" stroke-linecap="butt" stroke-linejoin="miter" stroke-miterlimit="10" stroke-dasharray="" stroke-dashoffset="0" font-family="none" font-weight="none" font-size="none" text-anchor="none" style="mix-blend-mode: normal" data-fill-palette-color="accent"></path></g><g transform="matrix(1,0,0,1,22.570455362309286,14.094694217142859)"><svg viewBox="0 0 25.33256036109571 42.28408265142858" height="42.28408265142858" width="25.33256036109571"><g><svg xmlns="http://www.w3.org/2000/svg" xmlns:xlink="http://www.w3.org/1999/xlink" version="1.1" x="0" y="0" viewBox="24.449035868661348 8.367000163494922 53.918363490553965 89.9983462297666" enable-background="new 21.454 3.367 59.909 100" xml:space="preserve" height="42.28408265142858" width="25.33256036109571" class="icon-dxe-0" data-fill-palette-color="quaternary" id="dxe-0"><path d="M78.201 87.271L69.355 62.445A2.87 2.87 0 0 0 65.824 60.661L59.329 62.618A2.86 2.86 0 0 0 57.437 64.468L54.872 56.704A2.57 2.57 0 0 0 56.607 56.037C57.682 55.077 57.649 53.522 56.805 52.354 56.189 51.502 55.555 50.183 54.645 48.744 50.939 42.886 46.038 26.689 46.038 26.689A1.4 1.4 0 0 0 45.87 26.443C45.212 25.039 43.677 24.305 41.828 24.019 39.166 23.606 36.816 24.239 36.242 27.149L31.567 55.514C31.087 57.947 30.82 59.181 30.785 60.47 30.656 65.14 27.406 95.393 27.406 95.393 27.278 96.398 28.222 98.168 29.643 98.35 31.063 98.532 32.422 97.055 32.551 96.05L42.774 58.447C42.775 58.427 42.76 58.416 42.757 58.398A8.4 8.4 0 0 0 42.978 57.2L44.558 42.972C46.733 47.037 49.202 51.304 51.131 53.689 51.276 53.868 51.549 54.199 51.839 54.548L51.023 54.832 51.795 57.049 51.947 56.996 63.551 92.11A3.39 3.39 0 1 0 68.866 94.899C68.866 94.338 68.717 93.816 68.475 93.35 68.528 93.337 68.581 93.33 68.634 93.315L76.332 90.98A2.87 2.87 0 0 0 78.201 87.271" fill="#ffffff" data-fill-palette-color="quaternary"></path><circle cx="42.221" cy="15.511" r="7.1" fill="#ffffff" data-fill-palette-color="quaternary"></circle><path d="M49.063 94.18L43.436 59.987 38.831 76.92 44.072 95.591C44.347 96.565 45.91 97.825 47.287 97.435 48.667 97.045 49.338 95.154 49.063 94.18" fill="#ffffff" data-fill-palette-color="quaternary"></path><path d="M32.773 40.885L32.855 40.329C33.493 35.989 33.968 32.886 34.287 30.956 32.374 34.619 28.624 41.838 25.299 48.487 25.034 49.018 23.986 51.35 24.686 52.525 24.974 53.009 25.506 53.294 26.096 53.455 27.914 53.952 30.441 49.376 30.939 48.429 31.306 47.731 31.661 47.065 32.007 46.42L32.497 43.443C32.59 42.416 32.683 41.48 32.773 40.885" fill="#ffffff" data-fill-palette-color="quaternary"></path></svg></g></svg></g></svg></g></svg></g><g></g></svg></g><defs></defs></svg><rect width="395.52" height="133.50571873097144" fill="none" stroke="none" visibility="hidden"></rect></g></svg></g></svg>