<svg viewBox="225 633 1077 270" xmlns:xlink="http://www.w3.org/1999/xlink" version="1.1" xmlns="http://www.w3.org/2000/svg" style="max-height: 500px" width="1077" height="270"><rect fill="#0077b6" height="1500" width="1500"/><g transform="matrix(0.6666666666666666,0,0,0.6666666666666666,249.72615421120355,667.5593494252872)"><svg xmlns:xlink="http://www.w3.org/1999/xlink" xmlns="http://www.w3.org/2000/svg" width="1500" height="247" preserveAspectRatio="xMidYMid meet" data-background-color="#0077b6" viewBox="0 0 352 58"><g transform="matrix(1,0,0,1,0.09639371765635474,0.037800000000004275)" id="tight-bounds"><svg width="351.8072068965517" height="57.92439999999999" viewBox="0 0 351.8072068965517 57.92439999999999"><g><svg width="351.8072068965517" height="57.92439999999999" viewBox="0 0 351.8072068965517 57.92439999999999"><g><svg width="351.8072068965517" height="57.92439999999999" viewBox="0 0 351.8072068965517 57.92439999999999"><g id="textblocktransform"><svg id="textblock" width="351.8072068965517" height="57.92439999999999" viewBox="0 0 351.8072068965517 57.92439999999999"><g><svg width="351.8072068965517" height="57.92439999999999" viewBox="0 0 351.8072068965517 57.92439999999999"><g><svg><g/><g/></svg></g><g><svg><g><svg/></g><g/></svg></g><g id="text-0"><svg width="351.8072068965517" height="57.92439999999999" viewBox="0 0 351.8072068965517 57.92439999999999"><g transform="matrix(1,0,0,1,0,11.112199999999994)"><svg data-palette-color="#ffffff" height="35.6" viewBox="1.2 -35 138.09 35.6" width="138.10000000000002"><path data-fill-palette-color="primary" class="undefined-tk-0" fill="#ffffff" transform="matrix(1,0,0,1,0,0)" opacity="1" d="M12.3-34.5L16.7-34.5 16.7 0 12.3 0 12.3-34.5ZM1.2-34.5L27.85-34.5 27.85-30.6 1.2-30.6 1.2-34.5ZM28.3-24.35L31.6-24.35 32.15-19.7 32.55-18.95 32.55 0 28.3 0 28.3-24.35ZM42.45-24.95L43.55-24.95 43.05-20.95 41.65-20.95Q39.5-20.95 37.35-20.08 35.2-19.2 32.1-17.6L32.1-17.6 31.75-20.25Q34.45-22.45 37.17-23.7 39.9-24.95 42.45-24.95L42.45-24.95ZM59.84-24.95L59.84-24.95Q62.55-24.95 64.42-24.23 66.3-23.5 67.25-21.8 68.19-20.1 68.19-17.15L68.19-17.15 68.19 0 64.84 0 64.19-5.3 63.9-5.85 63.9-17.15Q63.9-19.4 62.87-20.38 61.84-21.35 58.95-21.35L58.95-21.35Q57.05-21.35 54.17-21.15 51.3-20.95 48.49-20.7L48.49-20.7 48.09-23.85Q49.8-24.15 51.82-24.4 53.84-24.65 55.95-24.8 58.05-24.95 59.84-24.95ZM53.75-15L66.19-15 66.15-11.8 54.5-11.75Q52.75-11.7 52.05-10.83 51.34-9.95 51.34-8.4L51.34-8.4 51.34-6.85Q51.34-4.95 52.25-4.08 53.15-3.2 55.15-3.2L55.15-3.2Q56.55-3.2 58.32-3.73 60.09-4.25 61.89-5.35 63.7-6.45 65.19-8.15L65.19-8.15 65.19-5Q64.65-4.3 63.62-3.38 62.59-2.45 61.17-1.58 59.75-0.7 58.02-0.13 56.3 0.45 54.3 0.45L54.3 0.45Q52.15 0.45 50.5-0.33 48.84-1.1 47.92-2.63 46.99-4.15 46.99-6.35L46.99-6.35 46.99-9Q46.99-11.85 48.77-13.43 50.55-15 53.75-15L53.75-15ZM92.94-24.35L97.44-24.35 88.54-1.05Q88.34-0.55 87.97-0.28 87.59 0 87.04 0L87.04 0 83.19 0Q82.69 0 82.29-0.28 81.89-0.55 81.69-1.05L81.69-1.05 72.79-24.35 77.34-24.35 83.34-7.3Q83.74-6.25 84.09-5.15 84.44-4.05 84.79-3.05L84.79-3.05 85.44-3.05Q85.84-4.1 86.22-5.18 86.59-6.25 86.94-7.3L86.94-7.3 92.94-24.35ZM111.99-24.95L111.99-24.95Q117.49-24.95 119.97-22.95 122.44-20.95 122.44-17L122.44-17Q122.49-13.75 121.09-11.93 119.69-10.1 116.64-10.1L116.64-10.1 102.44-10.1 102.44-13.4 115.54-13.4Q117.19-13.4 117.69-14.53 118.19-15.65 118.19-17L118.19-17Q118.14-19.35 116.79-20.35 115.44-21.35 112.19-21.35L112.19-21.35Q109.54-21.35 108.02-20.58 106.49-19.8 105.87-17.88 105.24-15.95 105.24-12.5L105.24-12.5Q105.24-8.6 106.02-6.55 106.79-4.5 108.49-3.75 110.19-3 112.99-3L112.99-3Q114.94-3 117.27-3.18 119.59-3.35 121.44-3.6L121.44-3.6 121.89-0.75Q120.74-0.3 119.07 0 117.39 0.3 115.62 0.45 113.84 0.6 112.44 0.6L112.44 0.6Q108.24 0.6 105.69-0.68 103.14-1.95 101.97-4.78 100.79-7.6 100.79-12.25L100.79-12.25Q100.79-17.05 101.97-19.83 103.14-22.6 105.62-23.78 108.09-24.95 111.99-24.95ZM128.89-35L133.14-35 133.09-6.7Q133.09-5.1 133.96-4.28 134.84-3.45 136.44-3.45L136.44-3.45 138.79-3.45 139.29-0.2Q138.84 0 138.01 0.15 137.19 0.3 136.31 0.38 135.44 0.45 134.84 0.45L134.84 0.45Q132.14 0.45 130.51-1.15 128.89-2.75 128.89-5.75L128.89-5.75 128.89-35Z"/></svg></g><g><svg id="dxe-0" data-fill-palette-color="accent" class="icon-dxe-0" width="63.20428275862067" height="57.92439999999999" xml:space="preserve" viewBox="0.005 21.39 511.99 469.22" y="0" x="151.77560000000003" version="1.1" xmlns:xlink="http://www.w3.org/1999/xlink" xmlns="http://www.w3.org/2000/svg"><g data-fill-palette-color="accent" fill="#000000"><path data-fill-palette-color="accent" fill="#000000" d="M437.34 149.279C443.231 149.279 447.996 144.506 447.996 138.615S443.23 127.943 437.34 127.943 426.669 132.724 426.669 138.615 431.449 149.279 437.34 149.279"/><path data-fill-palette-color="accent" fill="#000000" d="M256 181.278C256 187.169 260.781 191.942 266.672 191.942S277.343 187.169 277.343 181.278 272.563 170.615 266.672 170.615 256 175.388 256 181.278"/><path data-fill-palette-color="accent" fill="#000000" d="M458.668 213.278C464.559 213.278 469.34 208.505 469.34 202.614S464.559 191.942 458.668 191.942 447.996 196.723 447.996 202.614 452.777 213.278 458.668 213.278"/><path data-fill-palette-color="accent" fill="#000000" d="M373.342 63.944H383.998V74.616C383.998 80.507 388.778 85.28 394.669 85.28S405.341 80.507 405.341 74.616V63.944H415.997C421.903 63.944 426.669 59.172 426.669 53.281S421.903 42.617 415.997 42.617H405.341V32.062C405.341 26.164 400.56 21.39 394.669 21.39S383.998 26.163 383.998 32.062V42.617H373.342C367.451 42.617 362.67 47.39 362.67 53.281S367.451 63.944 373.342 63.944"/><path data-fill-palette-color="accent" fill="#000000" d="M319.998 159.943C319.998 165.841 324.779 170.615 330.67 170.615H341.342V181.278C341.342 187.169 346.108 191.942 351.998 191.942 357.904 191.942 362.67 187.169 362.67 181.278V170.615H373.342C379.233 170.615 383.998 165.842 383.998 159.943 383.998 154.052 379.232 149.279 373.342 149.279H362.67V138.724C362.67 132.833 357.904 128.06 351.998 128.06 346.107 128.06 341.342 132.833 341.342 138.724V149.279H330.67C324.779 149.279 319.998 154.053 319.998 159.943"/><path data-fill-palette-color="accent" fill="#000000" d="M511.995 277.277C511.995 241.933 430.824 213.278 330.67 213.278S149.33 241.933 149.33 277.277C149.33 296.604 173.61 313.932 211.985 325.667L206.657 466.134C206.657 479.65 263.969 490.61 334.654 490.61 405.356 490.61 462.668 479.65 462.668 466.134L457.246 323.097C491.027 311.472 511.995 295.245 511.995 277.277M440.98 457.368C436.011 459.204 426.622 461.899 410.075 464.36 388.763 467.532 361.982 469.274 334.654 469.274 307.342 469.274 280.561 467.532 259.25 464.36 242.688 461.899 233.312 459.204 228.344 457.368L233.125 331.237C261.281 337.589 294.749 341.276 330.67 341.276 370.014 341.276 406.419 336.854 436.137 329.338zM484.09 285.808C479.152 289.925 469.543 296.152 451.793 302.417 436.418 307.839 418.356 312.128 398.106 315.151 376.779 318.331 354.091 319.94 330.669 319.94 307.232 319.94 284.545 318.331 263.233 315.151 242.983 312.128 224.921 307.839 209.546 302.417 191.796 296.151 182.187 289.925 177.249 285.808 172.046 281.465 170.671 278.332 170.671 277.278 170.671 276.231 172.046 273.09 177.249 268.747 182.187 264.63 191.796 258.403 209.546 252.138 224.92 246.716 242.983 242.435 263.233 239.411 284.545 236.223 307.232 234.614 330.669 234.614 354.091 234.614 376.778 236.223 398.106 239.411 418.356 242.434 436.418 246.716 451.793 252.138 469.543 258.404 479.152 264.63 484.09 268.747 489.293 273.091 490.668 276.231 490.668 277.278 490.668 278.332 489.293 281.465 484.09 285.808"/><path data-fill-palette-color="accent" fill="#000000" d="M330.67 245.277C265.875 245.277 213.329 259.605 213.329 277.277 213.329 294.948 265.875 309.276 330.67 309.276 395.466 309.276 447.996 294.948 447.996 277.277 447.996 259.605 395.466 245.277 330.67 245.277M398.294 281.668C379.248 285.714 355.232 287.94 330.67 287.94S282.093 285.713 263.031 281.668C256.312 280.23 250.859 278.723 246.547 277.277 250.859 275.832 256.313 274.324 263.031 272.886 282.093 268.839 306.108 266.613 330.67 266.613S379.248 268.84 398.294 272.886C405.028 274.324 410.466 275.831 414.794 277.277 410.466 278.723 405.028 280.23 398.294 281.668"/><path data-fill-palette-color="accent" fill="#000000" d="M295.608 51.188L0.005 221.856 32.004 277.277 327.608 106.616zM298.468 98.804L243.047 130.803 232.375 112.327 287.796 80.327zM29.16 229.66L213.907 122.998 224.562 141.475 39.816 248.137z"/></g></svg></g><g transform="matrix(1,0,0,1,228.6554827586207,10.912199999999999)"><svg data-palette-color="#ffffff" height="35.8" viewBox="3.1 -35.15 123.14171846917998 35.8" width="123.15172413793103"><path data-fill-palette-color="secondary" class="undefined-tk-1" fill="#ffffff" transform="matrix(1,0,0,1,0,0)" opacity="1" d="M17.5-35.15L17.5-35.15Q19.25-35.15 20.9-35.05 22.55-34.95 24.1-34.73 25.65-34.5 27.1-34.1L27.1-34.1 26.65-30.8Q25.1-30.95 23.53-31.05 21.95-31.15 20.5-31.18 19.05-31.2 17.75-31.2L17.75-31.2Q14.95-31.2 13.03-30.68 11.1-30.15 9.95-28.65 8.8-27.15 8.28-24.35 7.75-21.55 7.75-17.05L7.75-17.05Q7.75-11.95 8.45-8.93 9.15-5.9 10.8-4.55 12.45-3.2 15.2-3.2L15.2-3.2Q17.1-3.2 18.68-3.75 20.25-4.3 21.63-5.18 23-6.05 24.3-7L24.3-7 24.9-4.3Q24-3.25 22.43-2.1 20.85-0.95 18.75-0.15 16.65 0.65 14 0.65L14 0.65Q10.15 0.65 7.73-1.28 5.3-3.2 4.2-7.18 3.1-11.15 3.1-17.35L3.1-17.35Q3.1-24.2 4.48-28.08 5.85-31.95 9.03-33.55 12.2-35.15 17.5-35.15ZM23.7-19.95L28-19.95 28 0 24.8 0 24.1-5.1 23.7-6.1 23.7-19.95ZM35.5-24.35L39.7-24.35 39.7 0 35.5 0 35.5-24.35ZM36.6-34.7L38.6-34.7Q39.9-34.7 39.9-33.4L39.9-33.4 39.9-30.55Q39.9-29.25 38.6-29.25L38.6-29.25 36.6-29.25Q35.3-29.25 35.3-30.55L35.3-30.55 35.3-33.4Q35.3-34.7 36.6-34.7L36.6-34.7ZM62.5-24.95L62.5-24.95Q69.09-24.95 69.09-18.25L69.09-18.25 69.09 0 64.84 0 64.84-17.05Q64.84-19.5 64.05-20.43 63.25-21.35 61.34-21.35L61.34-21.35Q59.09-21.35 56.84-20.25 54.59-19.15 51.5-17.25L51.5-17.25 51.3-20.3Q54.15-22.5 56.95-23.73 59.75-24.95 62.5-24.95ZM47.7-24.35L51.3-24.35 51.65-19.7 51.95-18.95 51.95 0 47.7 0 47.7-24.35ZM91.54-24.95L91.54-24.95Q98.14-24.95 98.14-18.25L98.14-18.25 98.14 0 93.89 0 93.89-17.05Q93.89-19.5 93.09-20.43 92.29-21.35 90.39-21.35L90.39-21.35Q88.14-21.35 85.89-20.25 83.64-19.15 80.54-17.25L80.54-17.25 80.34-20.3Q83.19-22.5 85.99-23.73 88.79-24.95 91.54-24.95ZM76.74-24.35L80.34-24.35 80.69-19.7 80.99-18.95 80.99 0 76.74 0 76.74-24.35ZM115.79-24.95L115.79-24.95Q121.29-24.95 123.77-22.95 126.24-20.95 126.24-17L126.24-17Q126.29-13.75 124.89-11.93 123.49-10.1 120.44-10.1L120.44-10.1 106.24-10.1 106.24-13.4 119.34-13.4Q120.99-13.4 121.49-14.53 121.99-15.65 121.99-17L121.99-17Q121.94-19.35 120.59-20.35 119.24-21.35 115.99-21.35L115.99-21.35Q113.34-21.35 111.81-20.58 110.29-19.8 109.67-17.88 109.04-15.95 109.04-12.5L109.04-12.5Q109.04-8.6 109.81-6.55 110.59-4.5 112.29-3.75 113.99-3 116.79-3L116.79-3Q118.74-3 121.06-3.18 123.39-3.35 125.24-3.6L125.24-3.6 125.69-0.75Q124.54-0.3 122.87 0 121.19 0.3 119.42 0.45 117.64 0.6 116.24 0.6L116.24 0.6Q112.04 0.6 109.49-0.68 106.94-1.95 105.77-4.78 104.59-7.6 104.59-12.25L104.59-12.25Q104.59-17.05 105.77-19.83 106.94-22.6 109.42-23.78 111.89-24.95 115.79-24.95Z"/></svg></g></svg></g></svg></g></svg></g></svg></g><g/></svg></g><defs/></svg><rect visibility="hidden" stroke="none" fill="none" height="57.92439999999999" width="351.8072068965517"/></g></svg></g></svg>